<?xml version="1.0" encoding="UTF-8"?>
<!-- Generated by Pixelmator Pro 3.6.8 -->
<svg width="1660" height="292" viewBox="0 0 1660 292" xmlns="http://www.w3.org/2000/svg">
    <g id="Group">
        <path id="Path-copy" fill="#fbbc04" stroke="none" d="M 157.77951 1.200012 C 173.512848 4.666656 184.579529 13.733337 191.512848 28.399994 C 195.112854 36.133331 195.77951 38.799988 195.77951 48 C 195.646179 56.666656 195.112854 60 192.312866 66 C 190.312866 70 166.846191 111.466675 139.912842 158 C 104.579529 219.066666 89.246185 244.399994 84.846191 248.933334 C 72.71286 261.333313 54.71286 266 38.312866 260.799988 C 18.71286 254.800003 6.71286 240.399994 3.77951 219.733337 C 1.912842 205.866669 3.512848 202.799988 57.512848 108.933319 C 112.846191 12.666656 115.246185 9.066681 129.77951 3.733337 C 139.77951 0 148.979523 -0.799988 157.77951 1.200012 Z"/>
        <path id="Path" fill="#4285f4" stroke="none" d="M 139.333344 0.200012 C 123.600006 3.666656 112.533325 12.733337 105.600006 27.399994 C 102 35.133331 101.333344 37.799988 101.333344 47 C 101.466675 55.666656 102 59 104.799988 65 C 106.799988 69 130.266663 110.466675 157.200012 157 C 192.533325 218.066666 207.866669 243.399994 212.266663 247.933334 C 224.399994 260.333313 242.399994 265 258.799988 259.799988 C 278.399994 253.800003 290.399994 239.399994 293.333344 218.733337 C 295.200012 204.866669 293.600006 201.799988 239.600006 107.933319 C 184.266663 11.666656 181.866669 8.066681 167.333344 2.733337 C 157.333344 -1 148.133331 -1.799988 139.333344 0.200012 Z"/>
        <path id="Circle" fill="#34a853" fill-rule="evenodd" stroke="none" d="M 98 216 C 98 189.766479 76.733528 168.5 50.5 168.5 C 24.266474 168.5 3 189.766479 3 216 C 3 242.233521 24.266474 263.5 50.5 263.5 C 76.733528 263.5 98 242.233521 98 216 Z"/>
        <path id="path1" fill="#a8a5a5" stroke="none" d="M 516.93335 49 C 504.400024 52.333344 497.200012 55.533325 486 63 C 469.333313 74.066681 454.93335 93.266663 448.266663 113.133331 C 440.266663 136.866669 443.733337 167.666656 456.93335 190.066681 C 459.333313 194.333344 466.400024 202.866669 472.799988 209.133331 C 482.266663 218.733337 486.266663 221.666672 496.799988 226.866669 C 514.133362 235.399994 523.333313 237.53334 542 237.399994 C 559.599976 237.399994 571.599976 235 583.599976 229 C 610.93335 215.399994 626.133362 193.799988 630.133362 162.466675 C 630.93335 155.666656 631.200012 146.733337 630.666687 141.799988 L 629.733337 133 L 585.866638 133 L 542 133 L 542 146.333344 L 542 159.666656 L 573.333313 159.666656 L 604.666687 159.666656 L 603.866638 163.266663 C 598.400024 187.933319 585.06665 202.333344 560.799988 209.53334 C 551.333313 212.333328 532.666687 212.333328 523.200012 209.53334 C 480 196.866669 459.733337 149.133331 480.266663 108.333344 C 484.93335 99.266663 500.799988 83.666656 510 79.266663 C 525.599976 71.799988 541.599976 69.933319 557.733337 73.666656 C 567.599976 76.066681 574 79.133331 582.666687 85.666656 L 589.06665 90.600006 L 598.400024 81.266663 L 607.733337 71.933319 L 599.866638 65.799988 C 590.133362 58.066681 576 51.133331 564.666687 48.466675 C 552.400024 45.533325 529.200012 45.799988 516.93335 49 Z"/>
        <path id="path2" fill="#a8a5a5" stroke="none" d="M 1059.333374 143.666656 L 1059.333374 234.333328 L 1072.666626 234.333328 L 1086 234.333328 L 1086 143.666656 L 1086 53 L 1072.666626 53 L 1059.333374 53 L 1059.333374 143.666656 Z"/>
        <path id="path3" fill="#a8a5a5" stroke="none" d="M 1340 67.266663 C 1339.599976 68.600006 1325.333374 106.200012 1308.400024 151 C 1291.599976 195.666656 1277.466675 232.866669 1277.06665 233.399994 C 1276.800049 233.933334 1282 234.199997 1288.800049 234.066666 L 1301.06665 233.666672 L 1309.333374 211 L 1317.599976 188.333344 L 1353.466675 188.333344 L 1389.333374 188.333344 L 1397.466675 211 L 1405.599976 233.666672 L 1417.866699 234.066666 L 1430 234.46666 L 1428 229.399994 C 1426.93335 226.600006 1412.533325 188.600006 1396.133301 145 L 1366.133301 65.666656 L 1353.599976 65.266663 C 1342.533325 65 1340.93335 65.133331 1340 67.266663 Z M 1365.333374 122.333344 C 1371.06665 138.066681 1377.06665 154.733337 1378.800049 159.266663 L 1381.866699 167.666656 L 1353.466675 167.666656 L 1325.06665 167.666656 L 1338.133301 131.266663 C 1345.466675 111.399994 1351.599976 94.200012 1352 93.133331 C 1352.400024 91.933319 1353.199951 91.666656 1353.866699 92.466675 C 1354.533325 93.133331 1359.599976 106.600006 1365.333374 122.333344 Z"/>
        <path id="path4" fill="#a8a5a5" stroke="none" d="M 1528.666626 99.933319 L 1528.666626 134.866669 L 1524 129.266663 C 1521.06665 125.933319 1515.599976 122.066681 1510.266724 119.399994 C 1502 115.266663 1500.400024 115 1488 115 C 1476 115 1473.866699 115.399994 1466.666626 118.866669 C 1423.866699 139.933319 1421.333374 206.600006 1462.400024 230.866669 C 1481.866699 242.333328 1508.133301 239.133331 1523.333374 223.399994 L 1528.666626 218.066666 L 1528.666626 226.199997 L 1528.666626 234.333328 L 1538.666626 234.333328 L 1548.666626 234.333328 L 1548.666626 149.666656 L 1548.666626 65 L 1538.666626 65 L 1528.666626 65 L 1528.666626 99.933319 Z M 1506.666626 137.533325 C 1514.93335 141.399994 1520.93335 147.666656 1524.93335 156.333344 C 1527.466675 161.933319 1528 165.266663 1528 176.333344 C 1528 188.333344 1527.599976 190.466675 1524.133301 197.399994 C 1512.666626 220.866669 1482.666626 225.399994 1465.466675 206.199997 C 1457.199951 197.133331 1454.800049 190.200012 1454.666626 176.333344 C 1454.666626 166.200012 1455.199951 163.266663 1458.133301 157 C 1462.266724 148.333344 1469.866699 140.333344 1477.333374 136.866669 C 1485.199951 133.266663 1498.266724 133.533325 1506.666626 137.533325 Z"/>
        <path id="path5" fill="#a8a5a5" stroke="none" d="M 692 116.200012 C 681.733337 118.733337 669.200012 126.066681 662.400024 133.533325 C 635.06665 163.666656 644.133362 214.46666 679.733337 231.53334 C 710.93335 246.46666 747.733337 233.53334 762.400024 202.733337 C 766.533325 193.933319 766.666687 193.133331 766.666687 176.333344 C 766.666687 159.133331 766.666687 159 761.733337 148.600006 C 749.200012 122.466675 720.666687 109.266663 692 116.200012 Z M 716.93335 139.933319 C 724 142.066681 734.400024 151.533325 738.133362 159.399994 C 742.533325 168.200012 742.533325 182.866669 738.133362 192.600006 C 730 210.866669 709.466675 218.866669 692.799988 210.46666 C 685.200012 206.46666 677.200012 197 674.799988 188.866669 C 665.866638 159.133331 689.599976 131.666656 716.93335 139.933319 Z"/>
        <path id="path6" fill="#a8a5a5" stroke="none" d="M 829.333313 116.066681 C 812.533325 120.466675 798.666687 131.133331 790.93335 145.933319 C 770.666687 184.866669 792.533325 230.333328 834.666687 237.133331 C 864.93335 241.933334 894.800049 223 902.666626 193.799988 C 905.733276 182.333344 904.93335 163.399994 900.800049 152.733337 C 894.800049 137.266663 881.466675 124.066681 866.266724 118.333344 C 856.799988 114.733337 838.799988 113.666656 829.333313 116.066681 Z M 858.800049 142.066681 C 881.866699 153.933319 885.599976 188.600006 865.599976 205.666672 C 858.93335 211.399994 848 214.866669 840.133362 213.800003 C 837.200012 213.266663 831.466675 211.133331 827.599976 208.866669 C 805.599976 196.333344 803.599976 161.133331 824.133362 145.533325 C 834.133362 137.933319 848 136.466675 858.800049 142.066681 Z"/>
        <path id="path7" fill="#a8a5a5" stroke="none" d="M 966.93335 115.666656 C 949.599976 120.066681 934.533325 132.733337 926.266724 149.933319 C 921.466675 160.200012 921.333374 160.600006 921.333374 176.466675 C 921.333374 192.466675 921.333374 192.466675 926.533325 203 C 935.599976 221.266663 951.466675 233.666672 970.533325 237.133331 C 984.266724 239.666672 1000.266724 235.53334 1009.06665 227.266663 C 1013.733276 222.733337 1014.666626 224.600006 1013.466675 235.800003 C 1011.599976 252.066666 1006.533325 260.600006 995.733276 265.799988 C 986.800049 270.200012 975.866699 270.600006 967.333374 266.733337 C 962 264.333313 952.93335 255.933334 949.333374 249.933334 C 948.133301 247.933334 946.93335 248.199997 937.333374 252.199997 C 931.599976 254.600006 926.533325 257.399994 926.266724 258.200012 C 925.466675 260.600006 933.466675 272.200012 940.133301 278.333313 C 943.466675 281.399994 950.133301 285.799988 955.06665 288.06665 C 963.599976 292.200012 964.666626 292.333313 980.666626 292.333313 C 994.93335 292.333313 998.400024 291.799988 1004.93335 289.266663 C 1014.400024 285.533325 1025.466675 275.533325 1030.400024 266.733337 C 1037.733276 253.133331 1038 249.933334 1038 181.399994 L 1038 118.333344 L 1026 118.333344 L 1014 118.333344 L 1014 123 C 1014 128.333344 1012.800049 128.866669 1009.333374 125 C 1008 123.533325 1003.599976 120.733337 999.599976 118.866669 C 991.333374 115 975.866699 113.533325 966.93335 115.666656 Z M 995.466675 141.933319 C 1013.466675 151.133331 1020.400024 175.266663 1010.666626 195 C 1002.666626 211.399994 983.599976 218.46666 968.133301 210.866669 C 960.93335 207.133331 952.800049 198.200012 950 190.600006 C 938.266724 159.399994 967.599976 127.933319 995.466675 141.933319 Z"/>
        <path id="path8" fill="#a8a5a5" stroke="none" d="M 1144.666626 116.333344 C 1119.06665 123.533325 1103.333374 146.466675 1103.333374 176.466675 C 1103.333374 208.199997 1123.466675 232.333328 1153.733276 237 C 1175.466675 240.46666 1198.533325 231.933334 1211.199951 215.800003 L 1215.333374 210.600006 L 1204.93335 203.799988 L 1194.533325 197 L 1187.733276 203.533325 C 1180.800049 210.199997 1171.466675 214.333328 1163.333374 214.333328 C 1155.199951 214.333328 1145.733276 210.199997 1139.866699 204.066681 C 1136.666626 200.866669 1134 197.266663 1134 196.333344 C 1134 194.600006 1138.266724 192.733337 1187.333374 172.466675 C 1202.266724 166.200012 1214.800049 160.600006 1215.06665 159.799988 C 1216 157 1206 138.600006 1200 131.933319 C 1195.866699 127.266663 1190.533325 123.399994 1184 120.200012 C 1175.733276 116.066681 1172.666626 115.266663 1163.06665 114.866669 C 1155.733276 114.466675 1149.599976 115 1144.666626 116.333344 Z M 1173.466675 140.866669 C 1178.266724 143 1185.466675 149.933319 1184.266724 151.133331 C 1184 151.399994 1171.599976 156.733337 1156.533325 162.866669 L 1129.333374 174.200012 L 1128.93335 170.866669 C 1128.666626 169 1129.333374 164.866669 1130.533325 161.533325 C 1136.800049 143.133331 1157.06665 133.399994 1173.466675 140.866669 Z"/>
        <path id="path9" fill="#a8a5a5" stroke="none" d="M 1597.866699 116.066681 C 1582 120.600006 1570.133301 131.533325 1568.133301 143.533325 C 1564.93335 163.533325 1577.333374 175.533325 1609.733276 183.533325 C 1633.599976 189.533325 1638 192.466675 1638 202.333344 C 1638 212.333328 1629.06665 218.333328 1614.266724 218.333328 C 1600.533325 218.333328 1593.06665 213.666672 1584 199.266663 C 1582.800049 197.399994 1581.733276 197.533325 1574 200.600006 C 1569.199951 202.600006 1565.06665 204.333344 1564.800049 204.600006 C 1564.533325 204.733337 1565.333374 207.399994 1566.666626 210.333328 C 1570.133301 217.933334 1581.333374 228.866669 1589.599976 232.600006 C 1607.599976 240.866669 1632.93335 238.866669 1646.93335 228.199997 C 1665.333374 214.199997 1664 185.266663 1644.266724 173.799988 C 1641.06665 171.933319 1630 168.200012 1619.466675 165.666656 C 1593.199951 159.133331 1590 157.133331 1590 147.666656 C 1590 141.933319 1596 136.333344 1604.666626 134.333344 C 1617.199951 131.399994 1631.199951 135.666656 1636.93335 144.200012 L 1640 148.733337 L 1648 145.399994 C 1652.400024 143.533325 1656.533325 141.533325 1657.199951 141 C 1658.666626 139.533325 1654.133301 132.333344 1648.400024 126.733337 C 1640.666626 119.266663 1630 115.399994 1616.133301 114.866669 C 1608.800049 114.466675 1601.599976 115 1597.866699 116.066681 Z"/>
    </g>
</svg>
