<?xml version="1.0" encoding="UTF-8"?>
<svg width="923" height="304" viewBox="0 0 923 304" xmlns="http://www.w3.org/2000/svg">
    <path id="Path" fill="#ea4335" stroke="none" d="M 395.02243 160.011902 C 395.02243 203.728333 360.822998 235.9422 318.852478 235.9422 C 276.881989 235.9422 242.682556 203.728333 242.682556 160.011902 C 242.682556 115.987427 276.881989 84.081604 318.852478 84.081604 C 360.822998 84.081604 395.02243 115.987427 395.02243 160.011902 Z M 361.678833 160.011902 C 361.678833 132.693451 341.857513 114.001831 318.852478 114.001831 C 295.847443 114.001831 276.026154 132.693451 276.026154 160.011902 C 276.026154 187.056519 295.847443 206.021973 318.852478 206.021973 C 341.857513 206.021973 361.678833 187.022278 361.678833 160.011902 Z"/>
    <path id="path1" fill="#fbbc05" stroke="none" d="M 559.344055 160.011902 C 559.344055 203.728333 525.144592 235.9422 483.174133 235.9422 C 441.203674 235.9422 407.004211 203.728333 407.004211 160.011902 C 407.004211 116.021637 441.203674 84.081604 483.174133 84.081604 C 525.144592 84.081604 559.344055 115.987427 559.344055 160.011902 Z M 526.000488 160.011902 C 526.000488 132.693451 506.179169 114.001831 483.174133 114.001831 C 460.169098 114.001831 440.347839 132.693451 440.347839 160.011902 C 440.347839 187.056519 460.169098 206.021973 483.174133 206.021973 C 506.179169 206.021973 526.000488 187.022278 526.000488 160.011902 Z"/>
    <path id="path2" fill="#4285f4" stroke="none" d="M 716.819031 88.668945 L 716.819031 224.987457 C 716.819031 281.062195 683.749268 303.964539 644.654419 303.964539 C 607.85321 303.964539 585.703979 279.350525 577.350952 259.22113 L 606.381165 247.136627 C 611.550415 259.494965 624.216919 274.078522 644.620178 274.078522 C 669.64502 274.078522 685.152832 258.63913 685.152832 229.574738 L 685.152832 218.654205 L 683.988892 218.654205 C 676.52594 227.863068 662.147827 235.907959 644.003967 235.907959 C 606.038818 235.907959 571.257385 202.838257 571.257385 160.285797 C 571.257385 117.425232 606.038818 84.081604 644.003967 84.081604 C 662.113586 84.081604 676.49176 92.126526 683.988892 101.061523 L 685.152832 101.061523 L 685.152832 88.703186 L 716.819031 88.703186 Z M 687.514954 160.285797 C 687.514954 133.549286 669.679199 114.001831 646.9823 114.001831 C 623.977295 114.001831 604.703735 133.549286 604.703735 160.285797 C 604.703735 186.748413 623.977295 206.021973 646.9823 206.021973 C 669.679199 206.021973 687.514954 186.748413 687.514954 160.285797 Z"/>
    <path id="path3" fill="#34a853" stroke="none" d="M 769.025391 8.767517 L 769.025391 231.286438 L 736.503357 231.286438 L 736.503357 8.767517 Z"/>
    <path id="path4" fill="#ea4335" stroke="none" d="M 895.758484 185.002502 L 921.639099 202.256256 C 913.286072 214.614624 893.156677 235.907959 858.375305 235.907959 C 815.240845 235.907959 783.026917 202.564362 783.026917 159.977692 C 783.026917 114.823425 815.514709 84.047363 854.643799 84.047363 C 894.046753 84.047363 913.320374 115.405457 919.619324 132.351105 L 923.076965 140.977997 L 821.574097 183.016937 C 829.345093 198.250946 841.429565 206.021973 858.375305 206.021973 C 875.355164 206.021973 887.131592 197.668945 895.758484 185.002502 Z M 816.09668 157.684021 L 883.947815 129.509705 C 880.21637 120.026978 868.987671 113.419861 855.773499 113.419861 C 838.82782 113.419861 815.240845 128.380005 816.09668 157.684021 Z"/>
    <path id="path5" fill="#4285f4" stroke="none" d="M 119.578239 140.259064 L 119.578239 108.045166 L 228.13324 108.045166 C 229.194473 113.659485 229.742218 120.300842 229.742218 127.489929 C 229.742218 151.658905 223.135117 181.544891 201.841766 202.838257 C 181.130402 224.405457 154.66777 235.907959 119.612473 235.907959 C 54.636951 235.907959 0 182.982697 0 118.007172 C 0 53.031677 54.636951 0.106384 119.612473 0.106384 C 155.557831 0.106384 181.164627 14.210693 200.403961 32.594177 L 177.672806 55.325317 C 163.876617 42.38501 145.185028 32.320313 119.578239 32.320313 C 72.130363 32.320313 35.021053 70.559326 35.021053 118.007172 C 35.021053 165.455078 72.130363 203.694092 119.578239 203.694092 C 150.354309 203.694092 167.881958 191.335724 179.110611 180.107086 C 188.216766 171.000916 194.207657 157.992126 196.569778 140.224854 Z"/>
</svg>
