<?xml version="1.0" encoding="UTF-8"?>
<svg width="500" height="64" viewBox="0 0 500 64" xmlns="http://www.w3.org/2000/svg">
    <g id="landing-page-web-design-svgrepo-com">
        <path id="Path" fill="none" stroke="#00B4D8" stroke-width="3.238065" stroke-linecap="round" stroke-linejoin="round" d="M 424 21.398602 L 481.727264 21.398602"/>
        <path id="path1" fill="none" stroke="#00B4D8" stroke-width="2" stroke-linecap="round" stroke-linejoin="round" d="M 432.881134 14.737762 L 432.881134 14.737762"/>
        <path id="path2" fill="none" stroke="#00B4D8" stroke-width="2" stroke-linecap="round" stroke-linejoin="round" d="M 439.541962 14.737762 L 439.541962 14.737762"/>
        <path id="path3" fill="none" stroke="#00B4D8" stroke-width="2" stroke-linecap="round" stroke-linejoin="round" d="M 446.202789 14.737762 L 446.202789 14.737762"/>
        <path id="path4" fill="none" stroke="#00B4D8" stroke-width="4.440559" stroke-linecap="round" stroke-linejoin="round" d="M 424 8.076923 L 481.727264 8.076923 L 481.727264 56.923077 L 424 56.923077 Z"/>
        <path id="path5" fill="none" stroke="#00B4D8" stroke-width="4.440559" stroke-linecap="round" stroke-linejoin="round" d="M 430.660828 28.059441 L 452.863647 28.059441 L 452.863647 50.262238 L 430.660828 50.262238 Z"/>
        <path id="path6" fill="none" stroke="#00B4D8" stroke-width="4.440559" stroke-linecap="round" stroke-linejoin="round" d="M 459.524475 43.601398 L 475.066437 43.601398 L 475.066437 50.262238 L 459.524475 50.262238 Z"/>
        <path id="path7" fill="none" stroke="#00B4D8" stroke-width="3.238065" stroke-linecap="round" stroke-linejoin="round" d="M 461.744751 30.27972 L 475.066437 30.27972"/>
        <path id="path8" fill="none" stroke="#00B4D8" stroke-width="3.238065" stroke-linecap="round" stroke-linejoin="round" d="M 468.405609 36.940559 L 475.066437 36.940559"/>
        <path id="path9" fill="none" stroke="#00B4D8" stroke-width="4.440559" stroke-linecap="round" stroke-linejoin="round" d="M 430.660828 45.821678 L 443.982513 39.160839 L 452.863647 45.821678"/>
        <path id="path10" fill="none" stroke="#00B4D8" stroke-width="2" stroke-linecap="round" stroke-linejoin="round" d="M 437.321686 34.72028 L 437.321686 34.72028"/>
    </g>
    <text id="Landing-Page" xml:space="preserve" x="-4.298926" y="52" font-family="Roboto" font-size="66" font-weight="700" fill="#0077B6" letter-spacing="-1.35">Landing Page</text>
</svg>
