<?xml version="1.0" standalone="no"?>
<svg version="1.0" xmlns="http://www.w3.org/2000/svg"
 width="780.000000pt" height="100.000000pt" fill="#D12923" viewBox="40 -10 780.000000 110.000000"
 preserveAspectRatio="xMidYMid meet">

<g transform="translate(0.000000,100.000000) scale(0.100000,-0.100000)"
fill="#D12923" stroke="none">
<path d="M358 986 c-197 -53 -349 -327 -351 -630 0 -126 19 -198 71 -264 70
-88 216 -114 321 -57 82 45 166 155 301 397 30 54 57 98 60 97 3 0 32 -45 65
-101 211 -354 279 -422 430 -422 189 0 276 147 254 424 -31 388 -294 653 -532
536 -35 -17 -79 -52 -121 -97 -59 -62 -65 -72 -55 -92 6 -12 -21 12 -60 54
-84 91 -152 137 -229 155 -69 16 -93 16 -154 0z m819 -142 c74 -42 135 -141
175 -281 29 -104 32 -291 6 -340 -24 -44 -55 -63 -102 -63 -35 0 -46 6 -90 53
-28 30 -83 105 -122 168 -160 255 -204 327 -204 333 0 3 6 3 13 1 6 -2 29 18
50 46 90 116 172 141 274 83z m-674 -18 c42 -18 114 -82 153 -137 l31 -44
-132 -200 c-154 -234 -202 -285 -268 -285 -91 0 -135 83 -124 232 23 292 185
500 340 434z m227 -247 c15 -28 5 -23 -15 7 -9 15 -12 23 -6 20 6 -4 16 -16
21 -27z"/>
<path d="M6803 983 c-10 -3 -13 -46 -13 -164 0 -87 -2 -159 -4 -159 -3 0 -26
14 -51 31 -82 56 -173 60 -265 14 -116 -59 -166 -173 -158 -362 3 -88 7 -107
36 -166 81 -164 272 -219 404 -116 20 16 39 29 42 29 3 0 6 -15 8 -32 3 -32 5
-33 51 -36 l47 -3 0 479 c0 428 -2 481 -16 486 -18 7 -63 7 -81 -1z m-94 -381
c56 -45 84 -112 89 -212 5 -94 -7 -150 -41 -201 -70 -104 -204 -108 -280 -7
-37 50 -51 104 -50 198 1 127 37 201 118 245 44 24 119 13 164 -23z"/>
<path d="M5733 968 c-5 -7 -29 -62 -51 -123 -23 -60 -73 -193 -112 -295 -147
-382 -190 -499 -190 -515 0 -13 11 -15 61 -13 l61 3 48 134 c27 73 52 137 57
141 4 4 91 11 193 15 146 5 188 3 201 -7 9 -7 38 -67 63 -133 25 -66 50 -127
55 -135 9 -17 118 -27 133 -12 5 5 -6 45 -26 93 -95 235 -287 702 -324 789
l-28 65 -66 3 c-44 2 -68 -1 -75 -10z m82 -130 c2 -7 36 -99 74 -203 39 -105
71 -196 71 -203 0 -9 -41 -12 -155 -12 l-155 0 6 27 c4 16 20 60 35 98 15 39
45 123 66 187 36 112 48 134 58 106z"/>
<path d="M1840 495 l0 -475 75 0 75 0 0 362 c0 224 4 358 9 353 5 -6 70 -118
145 -250 l134 -240 70 -3 70 -3 131 234 c72 128 138 242 146 253 13 17 14 -22
15 -343 l0 -363 75 0 75 0 0 475 0 475 -90 0 c-89 0 -91 -1 -108 -29 -9 -16
-82 -146 -162 -289 -79 -143 -147 -259 -151 -257 -3 2 -77 133 -165 290 l-159
285 -92 0 -93 0 0 -475z"/>
<path d="M3868 828 l-3 -103 -73 -3 -73 -3 3 -57 3 -57 72 -3 72 -3 3 -222 c3
-208 4 -225 26 -264 12 -24 41 -55 64 -70 36 -24 53 -28 130 -32 49 -1 100 0
113 3 23 6 25 11 25 65 l0 59 -62 -5 c-81 -6 -128 16 -145 67 -7 22 -12 104
-12 218 l-1 182 110 0 110 0 0 60 0 59 -107 3 -108 3 -3 103 -3 102 -69 0 -69
0 -3 -102z"/>
<path d="M3245 726 c-98 -31 -162 -88 -209 -186 -28 -59 -30 -74 -30 -165 0
-131 25 -198 100 -272 60 -58 132 -90 223 -99 79 -9 208 25 279 72 l53 35 -42
50 c-42 50 -42 50 -63 31 -48 -44 -88 -57 -182 -57 -84 0 -94 2 -132 29 -39
26 -92 110 -92 143 0 10 54 13 265 13 l266 0 -6 63 c-19 187 -89 294 -224 342
-52 18 -150 19 -206 1z m185 -131 c35 -18 66 -54 85 -97 29 -71 36 -68 -175
-68 -145 0 -190 3 -190 13 1 53 84 151 138 163 15 3 32 7 37 9 16 5 78 -7 105
-20z"/>
<path d="M4534 726 c-92 -30 -166 -102 -199 -196 -73 -204 1 -425 170 -502 38
-17 67 -23 125 -22 85 0 145 23 199 76 l31 30 0 -30 c0 -57 6 -62 81 -62 l69
0 0 350 0 350 -69 0 -68 0 -7 -42 -7 -41 -32 30 c-18 17 -48 39 -67 49 -45 23
-170 29 -226 10z m214 -131 c20 -9 47 -26 60 -38 44 -41 52 -69 52 -188 0 -99
-3 -117 -22 -144 -60 -89 -196 -119 -287 -64 -114 69 -132 300 -29 396 55 51
153 68 226 38z"/>
<path d="M7245 731 c-61 -16 -101 -39 -133 -75 -38 -44 -46 -70 -40 -141 9
-103 56 -136 288 -200 105 -29 140 -53 140 -97 0 -41 -14 -63 -55 -88 -31 -19
-47 -22 -115 -18 -74 3 -81 5 -114 37 -20 19 -41 50 -47 68 -11 34 -11 34 -57
27 -26 -3 -51 -10 -56 -14 -17 -17 24 -108 68 -148 59 -54 102 -67 221 -67 88
1 106 4 150 27 60 31 89 60 110 110 28 68 17 148 -28 196 -33 36 -80 56 -222
96 -100 27 -135 42 -152 61 -32 36 -29 68 7 99 36 30 85 41 146 32 57 -7 93
-32 111 -74 14 -34 14 -34 66 -28 28 4 53 9 56 11 2 2 0 20 -3 40 -16 82 -114
144 -240 150 -39 3 -84 1 -101 -4z"/>
</g>
</svg>
