<svg width="185" height="88" viewBox="0 0 185 88" fill="none" xmlns="http://www.w3.org/2000/svg">
<path d="M95.4443 62.2305C83.1552 65.2942 68.4817 65.8763 57.6818 58.139C50.7799 53.1944 47.115 43.1958 49.6943 35.0802C52.1304 27.4156 57.8191 20.6812 66.3436 20.8865C70.7869 20.9935 74.6181 23.0378 75.4269 27.7171C76.6627 34.866 69.531 42.2639 63.8608 45.3736C46.1651 55.0783 21.132 54.5382 4.27479 43.2737" stroke="#FFCD2B" stroke-width="3" stroke-linecap="round"/>
<path d="M11.7046 56.4775C9.64263 53.5963 5.13988 46.8746 3.62462 43.0382" stroke="#FFCD2B" stroke-width="3" stroke-linecap="round"/>
<path d="M3.62451 43.0386C7.13716 42.5751 15.1215 41.2693 18.9579 39.754" stroke="#FFCD2B" stroke-width="3" stroke-linecap="round"/>
<path d="M109.418 69.8491C108.506 69.8491 107.702 69.6871 107.006 69.3631C106.31 69.0271 105.77 68.5591 105.386 67.9591C105.002 67.3591 104.804 66.6571 104.792 65.8531H106.7C106.7 66.3091 106.802 66.7291 107.006 67.1131C107.222 67.4851 107.528 67.7851 107.924 68.0131C108.332 68.2291 108.83 68.3371 109.418 68.3371C109.922 68.3371 110.354 68.2531 110.714 68.0851C111.086 67.9171 111.368 67.6891 111.56 67.4011C111.752 67.1011 111.848 66.7591 111.848 66.3751C111.848 65.9311 111.746 65.5651 111.542 65.2771C111.35 64.9891 111.08 64.7551 110.732 64.5751C110.384 64.3831 109.982 64.2151 109.526 64.0711C109.082 63.9271 108.614 63.7711 108.122 63.6031C107.138 63.2671 106.4 62.8471 105.908 62.3431C105.428 61.8271 105.188 61.1551 105.188 60.3271C105.188 59.6191 105.35 59.0071 105.674 58.4911C106.01 57.9631 106.484 57.5551 107.096 57.2671C107.708 56.9671 108.422 56.8171 109.238 56.8171C110.066 56.8171 110.78 56.9671 111.38 57.2671C111.992 57.5671 112.472 57.9811 112.82 58.5091C113.168 59.0371 113.348 59.6551 113.36 60.3631H111.452C111.452 60.0391 111.362 59.7211 111.182 59.4091C111.014 59.0971 110.762 58.8451 110.426 58.6531C110.102 58.4491 109.694 58.3471 109.202 58.3471C108.782 58.3351 108.41 58.4011 108.086 58.5451C107.774 58.6891 107.522 58.8991 107.33 59.1751C107.15 59.4511 107.06 59.7811 107.06 60.1651C107.06 60.5491 107.144 60.8611 107.312 61.1011C107.48 61.3291 107.714 61.5271 108.014 61.6951C108.326 61.8631 108.692 62.0191 109.112 62.1631C109.532 62.2951 109.994 62.4451 110.498 62.6131C111.11 62.8171 111.662 63.0691 112.154 63.3691C112.646 63.6571 113.03 64.0351 113.306 64.5031C113.594 64.9591 113.738 65.5471 113.738 66.2671C113.738 66.8911 113.576 67.4731 113.252 68.0131C112.928 68.5531 112.448 68.9971 111.812 69.3451C111.176 69.6811 110.378 69.8491 109.418 69.8491ZM118.776 69.8491C118.032 69.8491 117.414 69.7231 116.922 69.4711C116.43 69.2191 116.064 68.8831 115.824 68.4631C115.584 68.0431 115.464 67.5871 115.464 67.0951C115.464 66.4951 115.614 65.9851 115.914 65.5651C116.226 65.1451 116.67 64.8211 117.246 64.5931C117.834 64.3651 118.53 64.2511 119.334 64.2511H121.692C121.692 63.7231 121.614 63.2911 121.458 62.9551C121.302 62.6071 121.068 62.3491 120.756 62.1811C120.444 62.0011 120.06 61.9111 119.604 61.9111C119.064 61.9111 118.596 62.0431 118.2 62.3071C117.804 62.5591 117.564 62.9431 117.48 63.4591H115.68C115.752 62.8111 115.968 62.2651 116.328 61.8211C116.7 61.3651 117.174 61.0171 117.75 60.7771C118.326 60.5251 118.944 60.3991 119.604 60.3991C120.444 60.3991 121.152 60.5491 121.728 60.8491C122.304 61.1491 122.742 61.5751 123.042 62.1271C123.342 62.6671 123.492 63.3151 123.492 64.0711V69.6331H121.926L121.782 68.1031C121.662 68.3431 121.506 68.5711 121.314 68.7871C121.134 69.0031 120.918 69.1891 120.666 69.3451C120.426 69.5011 120.144 69.6211 119.82 69.7051C119.508 69.8011 119.16 69.8491 118.776 69.8491ZM119.118 68.3911C119.502 68.3911 119.85 68.3131 120.162 68.1571C120.474 68.0011 120.738 67.7911 120.954 67.5271C121.182 67.2511 121.35 66.9451 121.458 66.6091C121.578 66.2731 121.644 65.9191 121.656 65.5471V65.5111H119.514C118.998 65.5111 118.578 65.5771 118.254 65.7091C117.93 65.8291 117.696 66.0031 117.552 66.2311C117.42 66.4471 117.354 66.6931 117.354 66.9691C117.354 67.2571 117.42 67.5091 117.552 67.7251C117.696 67.9411 117.9 68.1091 118.164 68.2291C118.428 68.3371 118.746 68.3911 119.118 68.3911ZM127.994 69.6331L124.628 60.6151H126.518L129.074 67.9051L131.648 60.6151H133.502L130.118 69.6331H127.994ZM138.789 69.8491C137.913 69.8491 137.139 69.6571 136.467 69.2731C135.795 68.8771 135.267 68.3251 134.883 67.6171C134.511 66.9091 134.325 66.0871 134.325 65.1511C134.325 64.2031 134.511 63.3751 134.883 62.6671C135.255 61.9591 135.777 61.4071 136.449 61.0111C137.133 60.6031 137.919 60.3991 138.807 60.3991C139.695 60.3991 140.457 60.5971 141.093 60.9931C141.729 61.3891 142.221 61.9111 142.569 62.5591C142.917 63.2071 143.091 63.9211 143.091 64.7011C143.091 64.8211 143.091 64.9531 143.091 65.0971C143.091 65.2291 143.085 65.3791 143.073 65.5471H135.639V64.2871H141.291C141.267 63.5431 141.015 62.9611 140.535 62.5411C140.067 62.1091 139.485 61.8931 138.789 61.8931C138.309 61.8931 137.859 62.0071 137.439 62.2351C137.031 62.4511 136.701 62.7691 136.449 63.1891C136.209 63.6091 136.089 64.1431 136.089 64.7911V65.2951C136.089 65.9551 136.209 66.5131 136.449 66.9691C136.701 67.4251 137.031 67.7731 137.439 68.0131C137.847 68.2411 138.291 68.3551 138.771 68.3551C139.347 68.3551 139.821 68.2291 140.193 67.9771C140.577 67.7131 140.859 67.3651 141.039 66.9331H142.839C142.683 67.4851 142.419 67.9831 142.047 68.4271C141.675 68.8591 141.213 69.2071 140.661 69.4711C140.121 69.7231 139.497 69.8491 138.789 69.8491ZM149.534 69.6331V68.3371C150.362 67.6891 151.148 67.0351 151.892 66.3751C152.648 65.7151 153.32 65.0611 153.908 64.4131C154.508 63.7531 154.976 63.1111 155.312 62.4871C155.66 61.8511 155.834 61.2451 155.834 60.6691C155.834 60.2611 155.762 59.8831 155.618 59.5351C155.474 59.1871 155.246 58.9051 154.934 58.6891C154.622 58.4611 154.196 58.3471 153.656 58.3471C153.152 58.3471 152.726 58.4611 152.378 58.6891C152.03 58.9171 151.766 59.2231 151.586 59.6071C151.418 59.9791 151.334 60.3931 151.334 60.8491H149.606C149.618 59.9851 149.804 59.2531 150.164 58.6531C150.524 58.0531 151.01 57.5971 151.622 57.2851C152.234 56.9731 152.93 56.8171 153.71 56.8171C154.502 56.8171 155.192 56.9671 155.78 57.2671C156.368 57.5551 156.824 57.9811 157.148 58.5451C157.472 59.0971 157.634 59.7751 157.634 60.5791C157.634 61.1551 157.52 61.7311 157.292 62.3071C157.064 62.8711 156.752 63.4231 156.356 63.9631C155.972 64.5031 155.54 65.0251 155.06 65.5291C154.58 66.0211 154.082 66.4891 153.566 66.9331C153.062 67.3771 152.582 67.7791 152.126 68.1391H158.012V69.6331H149.534ZM164.478 69.8491C163.602 69.8491 162.84 69.6931 162.192 69.3811C161.544 69.0571 161.034 68.6191 160.662 68.0671C160.29 67.5151 160.068 66.8971 159.996 66.2131H161.742C161.874 66.8251 162.18 67.3291 162.66 67.7251C163.14 68.1211 163.752 68.3191 164.496 68.3191C165.036 68.3191 165.504 68.1871 165.9 67.9231C166.296 67.6591 166.602 67.3051 166.818 66.8611C167.046 66.4171 167.16 65.9191 167.16 65.3671C167.16 64.7911 167.046 64.2931 166.818 63.8731C166.602 63.4411 166.296 63.1051 165.9 62.8651C165.504 62.6251 165.048 62.5051 164.532 62.5051C163.908 62.5051 163.368 62.6491 162.912 62.9371C162.456 63.2131 162.126 63.5791 161.922 64.0351H160.194L161.256 57.0331H168.024V58.5991H162.624L161.958 62.1271C162.246 61.8031 162.63 61.5391 163.11 61.3351C163.602 61.1191 164.16 61.0111 164.784 61.0111C165.42 61.0111 165.99 61.1251 166.494 61.3531C166.998 61.5691 167.43 61.8751 167.79 62.2711C168.15 62.6671 168.42 63.1291 168.6 63.6571C168.792 64.1851 168.888 64.7491 168.888 65.3491C168.888 65.9731 168.786 66.5611 168.582 67.1131C168.378 67.6531 168.084 68.1331 167.7 68.5531C167.316 68.9611 166.854 69.2791 166.314 69.5071C165.774 69.7351 165.162 69.8491 164.478 69.8491ZM172.672 69.6331L179.926 57.0331H181.708L174.454 69.6331H172.672ZM180.916 69.8491C180.364 69.8491 179.86 69.7231 179.404 69.4711C178.96 69.2191 178.606 68.8651 178.342 68.4091C178.078 67.9411 177.946 67.3951 177.946 66.7711C177.946 66.1231 178.078 65.5711 178.342 65.1151C178.606 64.6591 178.96 64.3051 179.404 64.0531C179.86 63.8011 180.364 63.6751 180.916 63.6751C181.48 63.6751 181.978 63.8011 182.41 64.0531C182.854 64.3051 183.202 64.6591 183.454 65.1151C183.718 65.5711 183.85 66.1231 183.85 66.7711C183.85 67.3951 183.718 67.9411 183.454 68.4091C183.202 68.8651 182.854 69.2191 182.41 69.4711C181.966 69.7231 181.468 69.8491 180.916 69.8491ZM180.898 68.5171C181.162 68.5171 181.402 68.4511 181.618 68.3191C181.846 68.1871 182.026 67.9951 182.158 67.7431C182.302 67.4791 182.374 67.1491 182.374 66.7531C182.374 66.3571 182.308 66.0331 182.176 65.7811C182.044 65.5171 181.864 65.3191 181.636 65.1871C181.42 65.0551 181.174 64.9891 180.898 64.9891C180.646 64.9891 180.406 65.0551 180.178 65.1871C179.95 65.3191 179.764 65.5171 179.62 65.7811C179.488 66.0331 179.422 66.3571 179.422 66.7531C179.422 67.1491 179.488 67.4791 179.62 67.7431C179.764 67.9951 179.944 68.1871 180.16 68.3191C180.388 68.4511 180.634 68.5171 180.898 68.5171ZM173.572 63.0091C173.02 63.0091 172.522 62.8831 172.078 62.6311C171.634 62.3791 171.28 62.0251 171.016 61.5691C170.752 61.1011 170.62 60.5491 170.62 59.9131C170.62 59.2771 170.752 58.7311 171.016 58.2751C171.28 57.8191 171.634 57.4651 172.078 57.2131C172.534 56.9611 173.038 56.8351 173.59 56.8351C174.142 56.8351 174.64 56.9611 175.084 57.2131C175.528 57.4651 175.882 57.8191 176.146 58.2751C176.41 58.7311 176.542 59.2771 176.542 59.9131C176.542 60.5491 176.41 61.1011 176.146 61.5691C175.882 62.0251 175.528 62.3791 175.084 62.6311C174.64 62.8831 174.136 63.0091 173.572 63.0091ZM173.572 61.6771C173.848 61.6771 174.094 61.6111 174.31 61.4791C174.538 61.3471 174.718 61.1551 174.85 60.9031C174.982 60.6391 175.048 60.3091 175.048 59.9131C175.048 59.5171 174.982 59.1871 174.85 58.9231C174.718 58.6591 174.538 58.4611 174.31 58.3291C174.094 58.1971 173.854 58.1311 173.59 58.1311C173.326 58.1311 173.08 58.1971 172.852 58.3291C172.624 58.4611 172.438 58.6591 172.294 58.9231C172.162 59.1871 172.096 59.5171 172.096 59.9131C172.096 60.2971 172.162 60.6211 172.294 60.8851C172.438 61.1491 172.618 61.3471 172.834 61.4791C173.062 61.6111 173.308 61.6771 173.572 61.6771Z" fill="#FFCD2B"/>
</svg>
