<svg width="126" height="102" viewBox="0 0 126 102" fill="none" xmlns="http://www.w3.org/2000/svg">
<g clip-path="url(#clip0_6157_10509)">
<path d="M113.28 3.27357C113.28 1.81554 112.098 0.633575 110.64 0.633575C109.182 0.633575 108 1.81554 108 3.27357C108 4.73161 109.182 5.91357 110.64 5.91357C112.098 5.91357 113.28 4.73161 113.28 3.27357Z" fill="#FFCD2B"/>
<path d="M113.28 27.213C113.28 25.755 112.098 24.573 110.64 24.573C109.182 24.573 108 25.755 108 27.213C108 28.6711 109.182 29.853 110.64 29.853C112.098 29.853 113.28 28.6711 113.28 27.213Z" fill="#FFCD2B"/>
<path d="M113.29 51.1427C113.292 50.6182 113.139 50.1048 112.849 49.6677C112.559 49.2306 112.145 48.8894 111.661 48.6873C111.177 48.4851 110.644 48.4312 110.129 48.5323C109.615 48.6335 109.142 48.885 108.77 49.2552C108.398 49.6255 108.145 50.0976 108.042 50.6119C107.939 51.1263 107.991 51.6596 108.191 52.1444C108.391 52.6292 108.731 53.0437 109.167 53.3353C109.603 53.627 110.116 53.7827 110.64 53.7827C111.341 53.7827 112.014 53.5048 112.511 53.01C113.007 52.5152 113.288 51.8438 113.29 51.1427Z" fill="#FFCD2B"/>
<path d="M113.29 75.0731C113.29 74.549 113.135 74.0366 112.844 73.6008C112.552 73.165 112.139 72.8254 111.654 72.6249C111.17 72.4243 110.637 72.3719 110.123 72.4741C109.609 72.5764 109.137 72.8287 108.766 73.1993C108.396 73.57 108.143 74.0421 108.041 74.5562C107.939 75.0702 107.991 75.6031 108.192 76.0873C108.393 76.5715 108.732 76.9853 109.168 77.2765C109.604 77.5677 110.116 77.7231 110.64 77.7231C110.988 77.7231 111.333 77.6547 111.654 77.5215C111.976 77.3883 112.268 77.1931 112.514 76.947C112.76 76.7009 112.955 76.4088 113.089 76.0873C113.222 75.7658 113.29 75.4211 113.29 75.0731Z" fill="#FFCD2B"/>
<path d="M113.28 99.0128C113.28 97.5548 112.098 96.3728 110.64 96.3728C109.182 96.3728 108 97.5548 108 99.0128C108 100.471 109.182 101.653 110.64 101.653C112.098 101.653 113.28 100.471 113.28 99.0128Z" fill="#FFCD2B"/>
</g>
<g clip-path="url(#clip1_6157_10509)">
<path d="M90.9099 3.27357C90.9099 1.81554 89.7279 0.633575 88.2699 0.633575C86.8119 0.633575 85.6299 1.81554 85.6299 3.27357C85.6299 4.73161 86.8119 5.91357 88.2699 5.91357C89.7279 5.91357 90.9099 4.73161 90.9099 3.27357Z" fill="#FFCD2B"/>
<path d="M90.9099 27.213C90.9099 25.755 89.7279 24.573 88.2699 24.573C86.8119 24.573 85.6299 25.755 85.6299 27.213C85.6299 28.6711 86.8119 29.853 88.2699 29.853C89.7279 29.853 90.9099 28.6711 90.9099 27.213Z" fill="#FFCD2B"/>
<path d="M90.9104 51.1427C90.9123 50.6182 90.7586 50.1048 90.4686 49.6677C90.1787 49.2306 89.7654 48.8894 89.2814 48.6873C88.7973 48.4851 88.2642 48.4312 87.7495 48.5323C87.2348 48.6335 86.7617 48.885 86.3901 49.2552C86.0185 49.6255 85.7651 50.0976 85.662 50.6119C85.5589 51.1263 85.6108 51.6596 85.8111 52.1444C86.0114 52.6292 86.3511 53.0437 86.7871 53.3353C87.2231 53.627 87.7358 53.7827 88.2603 53.7827C88.9614 53.7827 89.6339 53.5048 90.1306 53.01C90.6273 52.5152 90.9077 51.8438 90.9104 51.1427Z" fill="#FFCD2B"/>
<path d="M90.9104 75.0731C90.9104 74.549 90.7549 74.0366 90.4638 73.6008C90.1726 73.165 89.7587 72.8254 89.2745 72.6249C88.7903 72.4243 88.2574 72.3719 87.7434 72.4741C87.2293 72.5764 86.7572 72.8287 86.3865 73.1993C86.0159 73.57 85.7635 74.0421 85.6613 74.5562C85.559 75.0702 85.6115 75.6031 85.8121 76.0873C86.0127 76.5715 86.3523 76.9853 86.7881 77.2765C87.2239 77.5677 87.7362 77.7231 88.2603 77.7231C88.6083 77.7231 88.953 77.6547 89.2745 77.5215C89.596 77.3883 89.8881 77.1931 90.1342 76.947C90.3802 76.7009 90.5755 76.4088 90.7087 76.0873C90.8419 75.7658 90.9104 75.4211 90.9104 75.0731Z" fill="#FFCD2B"/>
<path d="M90.9099 99.0128C90.9099 97.5548 89.7279 96.3728 88.2699 96.3728C86.8119 96.3728 85.6299 97.5548 85.6299 99.0128C85.6299 100.471 86.8119 101.653 88.2699 101.653C89.7279 101.653 90.9099 100.471 90.9099 99.0128Z" fill="#FFCD2B"/>
<path d="M69.4997 3.27357C69.4997 1.81554 68.3178 0.633575 66.8597 0.633575C65.4017 0.633575 64.2197 1.81554 64.2197 3.27357C64.2197 4.73161 65.4017 5.91357 66.8597 5.91357C68.3178 5.91357 69.4997 4.73161 69.4997 3.27357Z" fill="#FFCD2B"/>
<path d="M69.4997 27.213C69.4997 25.755 68.3178 24.573 66.8597 24.573C65.4017 24.573 64.2197 25.755 64.2197 27.213C64.2197 28.6711 65.4017 29.853 66.8597 29.853C68.3178 29.853 69.4997 28.6711 69.4997 27.213Z" fill="#FFCD2B"/>
<path d="M69.5002 51.1427C69.5022 50.6177 69.3482 50.1039 69.0578 49.6666C68.7673 49.2293 68.3535 48.8881 67.8689 48.6863C67.3843 48.4845 66.8506 48.4311 66.3357 48.5331C65.8207 48.635 65.3475 48.8876 64.9763 49.2588C64.6051 49.63 64.3526 50.1032 64.2506 50.6181C64.1487 51.1331 64.202 51.6667 64.4038 52.1513C64.6056 52.636 64.9469 53.0498 65.3842 53.3402C65.8215 53.6306 66.3352 53.7847 66.8602 53.7827C67.5595 53.7801 68.2295 53.501 68.724 53.0065C69.2185 52.5119 69.4976 51.842 69.5002 51.1427Z" fill="#FFCD2B"/>
<path d="M69.5002 75.0731C69.5002 74.5486 69.3445 74.0358 69.0529 73.5998C68.7612 73.1638 68.3468 72.8242 67.862 72.6239C67.3772 72.4236 66.8438 72.3718 66.3295 72.4748C65.8152 72.5779 65.343 72.8313 64.9728 73.2029C64.6026 73.5745 64.351 74.0477 64.2499 74.5624C64.1488 75.0771 64.2027 75.6102 64.4048 76.0942C64.6069 76.5783 64.9481 76.9914 65.3852 77.2814C65.8223 77.5713 66.3356 77.7251 66.8602 77.7231C67.2077 77.7231 67.5518 77.6545 67.8728 77.5212C68.1937 77.3879 68.4852 77.1926 68.7305 76.9464C68.9758 76.7002 69.17 76.408 69.3021 76.0865C69.4342 75.7651 69.5015 75.4206 69.5002 75.0731Z" fill="#FFCD2B"/>
<path d="M69.4997 99.0128C69.4997 97.5548 68.3178 96.3728 66.8597 96.3728C65.4017 96.3728 64.2197 97.5548 64.2197 99.0128C64.2197 100.471 65.4017 101.653 66.8597 101.653C68.3178 101.653 69.4997 100.471 69.4997 99.0128Z" fill="#FFCD2B"/>
<path d="M48.0896 3.27357C48.0896 1.81554 46.9076 0.633575 45.4496 0.633575C43.9915 0.633575 42.8096 1.81554 42.8096 3.27357C42.8096 4.73161 43.9915 5.91357 45.4496 5.91357C46.9076 5.91357 48.0896 4.73161 48.0896 3.27357Z" fill="#FFCD2B"/>
<path d="M48.0896 27.213C48.0896 25.755 46.9076 24.573 45.4496 24.573C43.9915 24.573 42.8096 25.755 42.8096 27.213C42.8096 28.6711 43.9915 29.853 45.4496 29.853C46.9076 29.853 48.0896 28.6711 48.0896 27.213Z" fill="#FFCD2B"/>
<path d="M48.0998 51.1427C48.1018 50.6182 47.9481 50.1048 47.6581 49.6677C47.3681 49.2306 46.9549 48.8894 46.4708 48.6873C45.9868 48.4851 45.4537 48.4312 44.939 48.5323C44.4243 48.6335 43.9512 48.885 43.5795 49.2552C43.2079 49.6255 42.9545 50.0976 42.8515 50.6119C42.7484 51.1263 42.8003 51.6596 43.0006 52.1444C43.2008 52.6292 43.5405 53.0437 43.9765 53.3353C44.4125 53.627 44.9252 53.7827 45.4498 53.7827C46.1509 53.7827 46.8234 53.5048 47.3201 53.01C47.8168 52.5152 48.0972 51.8438 48.0998 51.1427Z" fill="#FFCD2B"/>
<path d="M48.0998 75.0731C48.0998 74.549 47.9444 74.0366 47.6532 73.6008C47.362 73.165 46.9482 72.8254 46.4639 72.6249C45.9797 72.4243 45.4469 72.3719 44.9328 72.4741C44.4188 72.5764 43.9465 72.8287 43.5759 73.1993C43.2053 73.57 42.953 74.0421 42.8507 74.5562C42.7485 75.0702 42.801 75.6031 43.0015 76.0873C43.2021 76.5715 43.5418 76.9853 43.9776 77.2765C44.4133 77.5677 44.9257 77.7231 45.4498 77.7231C45.7978 77.7231 46.1424 77.6547 46.4639 77.5215C46.7855 77.3883 47.0775 77.1931 47.3236 76.947C47.5697 76.7009 47.7649 76.4088 47.8981 76.0873C48.0313 75.7658 48.0998 75.4211 48.0998 75.0731Z" fill="#FFCD2B"/>
<path d="M48.0896 99.0128C48.0896 97.5548 46.9076 96.3728 45.4496 96.3728C43.9915 96.3728 42.8096 97.5548 42.8096 99.0128C42.8096 100.471 43.9915 101.653 45.4496 101.653C46.9076 101.653 48.0896 100.471 48.0896 99.0128Z" fill="#FFCD2B"/>
<path d="M26.6902 3.27357C26.6902 1.81554 25.5082 0.633575 24.0502 0.633575C22.5921 0.633575 21.4102 1.81554 21.4102 3.27357C21.4102 4.73161 22.5921 5.91357 24.0502 5.91357C25.5082 5.91357 26.6902 4.73161 26.6902 3.27357Z" fill="#FFCD2B"/>
<path d="M26.6902 27.213C26.6902 25.755 25.5082 24.573 24.0502 24.573C22.5921 24.573 21.4102 25.755 21.4102 27.213C21.4102 28.6711 22.5921 29.853 24.0502 29.853C25.5082 29.853 26.6902 28.6711 26.6902 27.213Z" fill="#FFCD2B"/>
<path d="M26.6604 51.1427C26.6623 50.6177 26.5083 50.1039 26.2179 49.6666C25.9275 49.2293 25.5137 48.8881 25.0291 48.6863C24.5444 48.4845 24.0108 48.4311 23.4958 48.5331C22.9808 48.635 22.5078 48.8876 22.1366 49.2588C21.7653 49.63 21.5127 50.1032 21.4108 50.6181C21.3089 51.1331 21.3622 51.6667 21.564 52.1513C21.7658 52.636 22.107 53.0498 22.5443 53.3402C22.9817 53.6306 23.4954 53.7847 24.0203 53.7827C24.7197 53.7801 25.3897 53.501 25.8842 53.0065C26.3788 52.5119 26.6577 51.842 26.6604 51.1427Z" fill="#FFCD2B"/>
<path d="M26.6604 75.0731C26.6604 74.5486 26.5047 74.0358 26.213 73.5998C25.9214 73.1638 25.507 72.8242 25.0222 72.6239C24.5374 72.4236 24.004 72.3718 23.4897 72.4748C22.9754 72.5779 22.5032 72.8313 22.133 73.2029C21.7628 73.5745 21.5112 74.0477 21.4101 74.5624C21.3089 75.0771 21.3629 75.6102 21.565 76.0942C21.7671 76.5783 22.1083 76.9914 22.5454 77.2814C22.9825 77.5713 23.4958 77.7251 24.0203 77.7231C24.3679 77.7231 24.712 77.6545 25.033 77.5212C25.3539 77.3879 25.6454 77.1926 25.8906 76.9464C26.1359 76.7002 26.3302 76.408 26.4623 76.0865C26.5944 75.7651 26.6617 75.4206 26.6604 75.0731Z" fill="#FFCD2B"/>
<path d="M26.6902 99.0128C26.6902 97.5548 25.5082 96.3728 24.0502 96.3728C22.5921 96.3728 21.4102 97.5548 21.4102 99.0128C21.4102 100.471 22.5921 101.653 24.0502 101.653C25.5082 101.653 26.6902 100.471 26.6902 99.0128Z" fill="#FFCD2B"/>
<path d="M5.28 3.27357C5.28 1.81554 4.09803 0.633575 2.64 0.633575C1.18197 0.633575 -1.79131e-07 1.81554 -1.15398e-07 3.27357C-5.16654e-08 4.73161 1.18197 5.91357 2.64 5.91357C4.09803 5.91357 5.28 4.73161 5.28 3.27357Z" fill="#FFCD2B"/>
<path d="M5.28 27.213C5.28 25.755 4.09803 24.573 2.64 24.573C1.18197 24.573 -1.79131e-07 25.755 -1.15398e-07 27.213C-5.16654e-08 28.6711 1.18197 29.853 2.64 29.853C4.09803 29.853 5.28 28.6711 5.28 27.213Z" fill="#FFCD2B"/>
<path d="M5.29024 51.1427C5.29222 50.6182 5.13851 50.1048 4.84853 49.6677C4.55855 49.2306 4.14532 48.8894 3.66127 48.6873C3.17723 48.4851 2.64412 48.4312 2.12941 48.5323C1.61471 48.6335 1.14159 48.885 0.769978 49.2552C0.398367 49.6255 0.144953 50.0976 0.0418893 50.6119C-0.0611746 51.1263 -0.00927678 51.6596 0.190998 52.1444C0.391273 52.6292 0.730946 53.0437 1.16695 53.3353C1.60295 53.627 2.11567 53.7827 2.64022 53.7827C3.34131 53.7827 4.01383 53.5048 4.51052 53.01C5.0072 52.5152 5.2876 51.8438 5.29024 51.1427Z" fill="#FFCD2B"/>
<path d="M5.29023 75.0731C5.29023 74.549 5.13483 74.0366 4.84364 73.6008C4.55245 73.165 4.13859 72.8254 3.65437 72.6249C3.17015 72.4243 2.63729 72.3719 2.12324 72.4741C1.60919 72.5764 1.13698 72.8287 0.76637 73.1993C0.39576 73.57 0.143401 74.0421 0.0411499 74.5562C-0.0611009 75.0702 -0.00860443 75.6031 0.191968 76.0873C0.39254 76.5715 0.732191 76.9853 1.16798 77.2765C1.60377 77.5677 2.11609 77.7231 2.64021 77.7231C2.98821 77.7231 3.33286 77.6547 3.65437 77.5215C3.97588 77.3883 4.26798 77.1931 4.51405 76.947C4.76013 76.7009 4.95534 76.4088 5.08851 76.0873C5.22169 75.7658 5.29023 75.4211 5.29023 75.0731Z" fill="#FFCD2B"/>
<path d="M5.28 99.0128C5.28 97.5548 4.09803 96.3728 2.64 96.3728C1.18197 96.3728 -1.79131e-07 97.5548 -1.15398e-07 99.0128C-5.16654e-08 100.471 1.18197 101.653 2.64 101.653C4.09803 101.653 5.28 100.471 5.28 99.0128Z" fill="#FFCD2B"/>
</g>
<defs>
<clipPath id="clip0_6157_10509">
<rect width="148.89" height="90.91" fill="white" transform="translate(108 149.523) rotate(-90)"/>
</clipPath>
<clipPath id="clip1_6157_10509">
<rect width="148.89" height="90.91" fill="white" transform="translate(0 149.523) rotate(-90)"/>
</clipPath>
</defs>
</svg>
