<svg width="138" height="46" viewBox="0 0 138 46" fill="none" xmlns="http://www.w3.org/2000/svg">
  <path fill-rule="evenodd" clip-rule="evenodd"
        d="M0 0H4.60822C6.67666 0 8.34961 0.175866 9.6271 0.527733C10.9047 0.8796 12.03 1.5352 13.0035 2.4948C14.6156 4.094 15.4216 6.20493 15.4216 8.8276C15.4216 10.3308 15.1175 11.5943 14.5091 12.6177C13.9616 13.6092 13.2012 14.3448 12.2278 14.8245C13.8095 15.2404 15.1175 16.008 16.1516 17.1275C17.4901 18.5987 18.1592 20.5977 18.1592 23.1244C18.1592 25.4593 17.4901 27.3783 16.1516 28.8816C14.2658 30.9605 11.4217 32 7.61963 32H0V0ZM4.65388 4.60573V13.7691H6.06833C7.77164 13.7691 9.03395 13.3533 9.85525 12.5217C10.6461 11.7221 11.0415 10.5068 11.0415 8.8756C11.0415 7.56427 10.6766 6.54067 9.94656 5.80507C9.15561 5.00547 7.92379 4.60573 6.25083 4.60573H4.65388ZM4.65388 17.7991V27.3943H7.48265C9.58144 27.3943 11.1176 26.9785 12.0909 26.1469C13.0947 25.3153 13.5966 24.132 13.5966 22.5967C13.5966 21.2213 13.186 20.102 12.3647 19.2384C11.4217 18.2788 9.82477 17.7991 7.57397 17.7991H4.65388ZM45.9117 32L42.773 24.7026H29.9943L26.7212 32H21.7891L36.6751 0L50.8438 32H45.9117ZM31.8776 20.3512H40.9346L36.4958 10.1076L31.8776 20.3512ZM63.0194 27.3944L79.8995 0H57.2555V4.60578H71.3566L54.4766 32H79.4878V27.3944H63.0194ZM109.154 32L105.819 24.7026H92.2415L88.7638 32H83.5234L99.3399 0L114.394 32H109.154ZM94.2425 20.3512H103.866L99.1493 10.1076L94.2425 20.3512ZM123.501 0H118.023V32H122.719V18.9026H123.547L132.338 32H137.999L128.425 18.3268C130.481 17.8471 132.123 16.8076 133.35 15.2084C134.608 13.6092 135.237 11.6741 135.237 9.40328C135.237 6.07701 134.025 3.56621 131.601 1.87104C129.822 0.62377 127.122 0 123.501 0ZM122.719 14.6807V4.50973H124.329C128.594 4.50973 130.727 6.15694 130.727 9.45124C130.727 10.4109 130.528 11.2423 130.128 11.946C129.76 12.6497 129.316 13.1775 128.794 13.5293C128.303 13.8491 127.704 14.105 126.998 14.2968C126.324 14.4888 125.786 14.6007 125.388 14.6327C124.989 14.6647 124.589 14.6807 124.191 14.6807H122.719Z"
        fill="#52A713"/>
  <path
    d="M7.18078 45.7235C7.126 45.7235 7.08217 45.7071 7.0493 45.6744C7.01643 45.6417 7 45.5981 7 45.5436V40.1881C7 40.1281 7.01643 40.0818 7.0493 40.0491C7.08217 40.0164 7.126 40 7.18078 40H8.93111C9.51181 40 9.96651 40.0845 10.2952 40.2535C10.6239 40.4224 10.8567 40.6732 10.9937 41.0057C11.1361 41.3328 11.2101 41.7334 11.2156 42.2076C11.2211 42.4529 11.2238 42.671 11.2238 42.8617C11.2238 43.0471 11.2211 43.2624 11.2156 43.5077C11.2046 44.0092 11.1307 44.4234 10.9937 44.7505C10.8567 45.0775 10.6267 45.3228 10.3034 45.4864C9.98021 45.6444 9.53647 45.7235 8.9722 45.7235H7.18078ZM7.5177 45.2329H8.93111C9.36938 45.2329 9.71451 45.1757 9.96651 45.0612C10.224 44.9413 10.4075 44.7532 10.5171 44.497C10.6321 44.2354 10.6924 43.892 10.6979 43.4668C10.7033 43.3033 10.7061 43.1615 10.7061 43.0416C10.7061 42.9163 10.7061 42.7936 10.7061 42.6737C10.7061 42.5538 10.7033 42.412 10.6979 42.2485C10.6869 41.6489 10.5472 41.2074 10.2788 40.9239C10.0103 40.635 9.54742 40.4906 8.89002 40.4906H7.5177V45.2329Z"
    fill="black"/>
  <path d="M14.4073 45.7235C14.3526 45.7235 14.3087 45.7071 14.2759 45.6744C14.243 45.6417 14.2266 45.5981 14.2266 45.5436V40.1799C14.2266 40.1254 14.243 40.0818 14.2759 40.0491C14.3087 40.0164 14.3526 40 14.4073 40H14.5635C14.6183 40 14.6621 40.0164 14.695 40.0491C14.7278 40.0818 14.7443 40.1254 14.7443 40.1799V45.5436C14.7443 45.5981 14.7278 45.6417 14.695 45.6744C14.6621 45.7071 14.6183 45.7235 14.5635 45.7235H14.4073Z" fill="black"/>
  <path d="M17.9065 45.7235C17.8627 45.7235 17.8244 45.7071 17.7915 45.6744C17.7586 45.6417 17.7422 45.6036 17.7422 45.56C17.7422 45.5327 17.7477 45.5027 17.7586 45.47L19.8376 40.1635C19.8596 40.109 19.887 40.0681 19.9198 40.0409C19.9582 40.0136 20.0102 40 20.076 40H20.3553C20.4211 40 20.4704 40.0136 20.5033 40.0409C20.5416 40.0681 20.5717 40.109 20.5937 40.1635L22.6727 45.47C22.6836 45.5027 22.6891 45.5327 22.6891 45.56C22.6891 45.6036 22.6727 45.6417 22.6398 45.6744C22.6069 45.7071 22.5686 45.7235 22.5248 45.7235H22.3604C22.3056 45.7235 22.2645 45.7099 22.2372 45.6826C22.2098 45.6499 22.1906 45.6226 22.1796 45.6008L21.6701 44.2926H18.7612L18.2517 45.6008C18.2462 45.6226 18.227 45.6499 18.1941 45.6826C18.1668 45.7099 18.1257 45.7235 18.0709 45.7235H17.9065ZM18.9584 43.802H21.4729L20.2157 40.5805L18.9584 43.802Z" fill="black"/>
  <path
    d="M27.7912 45.887C27.3474 45.887 26.9694 45.8161 26.6572 45.6744C26.3504 45.5327 26.1148 45.3501 25.9505 45.1266C25.7861 44.9031 25.6985 44.666 25.6875 44.4153C25.6875 44.3716 25.7039 44.3335 25.7368 44.3008C25.7697 44.2681 25.8108 44.2517 25.8601 44.2517H26.0244C26.0792 44.2517 26.1203 44.2681 26.1477 44.3008C26.1805 44.3335 26.1997 44.3716 26.2052 44.4153C26.2271 44.5679 26.2956 44.7205 26.4106 44.8731C26.5257 45.0203 26.6955 45.1457 26.9201 45.2492C27.1447 45.3474 27.4351 45.3964 27.7912 45.3964C28.3281 45.3964 28.7198 45.301 28.9663 45.1103C29.2128 44.914 29.3361 44.6524 29.3361 44.3253C29.3361 44.1073 29.2703 43.9328 29.1388 43.802C29.0128 43.6658 28.8184 43.5458 28.5554 43.4423C28.2924 43.3332 27.9555 43.2133 27.5447 43.0825C27.1557 42.9571 26.8352 42.829 26.5832 42.6982C26.3312 42.5619 26.1449 42.3984 26.0244 42.2076C25.9094 42.0168 25.8518 41.7716 25.8518 41.4718C25.8518 41.1938 25.9258 40.9457 26.0737 40.7277C26.2216 40.5042 26.4353 40.3271 26.7147 40.1962C26.9996 40.0654 27.3447 40 27.7501 40C28.0733 40 28.3554 40.0436 28.5965 40.1308C28.8375 40.218 29.0375 40.3352 29.1964 40.4824C29.3552 40.6241 29.4758 40.7795 29.5579 40.9485C29.6401 41.112 29.6839 41.2728 29.6894 41.4309C29.6894 41.469 29.6757 41.5072 29.6483 41.5453C29.6209 41.578 29.5771 41.5944 29.5169 41.5944H29.3525C29.3251 41.5944 29.2895 41.5835 29.2457 41.5617C29.2073 41.5399 29.1827 41.4963 29.1717 41.4309C29.1388 41.1583 28.9937 40.9348 28.7362 40.7604C28.4842 40.5805 28.1555 40.4906 27.7501 40.4906C27.3447 40.4906 27.0133 40.5696 26.7558 40.7277C26.4983 40.8858 26.3696 41.1338 26.3696 41.4718C26.3696 41.6898 26.4271 41.8697 26.5421 42.0114C26.6572 42.1477 26.8379 42.2703 27.0845 42.3793C27.331 42.4829 27.6487 42.5974 28.0377 42.7227C28.4486 42.8536 28.7882 42.9844 29.0567 43.1152C29.3251 43.246 29.5251 43.4068 29.6565 43.5976C29.788 43.7829 29.8538 44.0255 29.8538 44.3253C29.8538 44.6578 29.7689 44.9413 29.599 45.1757C29.4347 45.4046 29.1991 45.5818 28.8923 45.7071C28.5855 45.827 28.2185 45.887 27.7912 45.887Z"
    fill="black"/>
  <path d="M33.0323 45.7235C32.9776 45.7235 32.9337 45.7071 32.9009 45.6744C32.868 45.6417 32.8516 45.5981 32.8516 45.5436V40.1881C32.8516 40.1281 32.868 40.0818 32.9009 40.0491C32.9337 40.0164 32.9776 40 33.0323 40H35.0292C35.4127 40 35.7441 40.0654 36.0235 40.1962C36.3084 40.3216 36.5275 40.5097 36.6809 40.7604C36.8398 41.0111 36.9192 41.3219 36.9192 41.6925C36.9192 42.0632 36.8398 42.3739 36.6809 42.6246C36.5275 42.8754 36.3084 43.0662 36.0235 43.197C35.7441 43.3223 35.4127 43.385 35.0292 43.385H33.3693V45.5436C33.3693 45.5981 33.3528 45.6417 33.32 45.6744C33.2871 45.7071 33.2405 45.7235 33.1803 45.7235H33.0323ZM33.3693 42.8944H34.9881C35.4647 42.8944 35.8181 42.7909 36.0482 42.5837C36.2837 42.3766 36.4015 42.0795 36.4015 41.6925C36.4015 41.3055 36.2837 41.0084 36.0482 40.8013C35.8181 40.5942 35.4647 40.4906 34.9881 40.4906H33.3693V42.8944Z" fill="black"/>
  <path
    d="M42.0995 45.887C41.6448 45.887 41.2586 45.808 40.9408 45.6499C40.6231 45.4864 40.3793 45.2383 40.2095 44.9058C40.0397 44.5679 39.9465 44.1427 39.9301 43.6303C39.9246 43.385 39.9219 43.1561 39.9219 42.9435C39.9219 42.7309 39.9246 42.502 39.9301 42.2567C39.9465 41.7498 40.0451 41.33 40.2259 40.9975C40.4067 40.6596 40.656 40.4088 40.9737 40.2453C41.2969 40.0818 41.6722 40 42.0995 40C42.5268 40 42.8993 40.0818 43.2171 40.2453C43.5403 40.4088 43.7923 40.6596 43.9731 40.9975C44.1594 41.33 44.258 41.7498 44.2689 42.2567C44.2799 42.502 44.2854 42.7309 44.2854 42.9435C44.2854 43.1561 44.2799 43.385 44.2689 43.6303C44.258 44.1427 44.1648 44.5679 43.9895 44.9058C43.8197 45.2383 43.5759 45.4864 43.2582 45.6499C42.9404 45.808 42.5542 45.887 42.0995 45.887ZM42.0995 45.3964C42.5706 45.3964 42.9569 45.2547 43.2582 44.9713C43.565 44.6878 43.7293 44.2272 43.7512 43.5894C43.7622 43.3441 43.7677 43.1288 43.7677 42.9435C43.7677 42.7582 43.7622 42.5429 43.7512 42.2976C43.7403 41.8724 43.6608 41.5263 43.5129 41.2592C43.3705 40.9921 43.176 40.7986 42.9295 40.6786C42.6884 40.5533 42.4118 40.4906 42.0995 40.4906C41.7927 40.4906 41.5161 40.5533 41.2695 40.6786C41.0285 40.7986 40.834 40.9921 40.6861 41.2592C40.5437 41.5263 40.4642 41.8724 40.4478 42.2976C40.4423 42.5429 40.4396 42.7582 40.4396 42.9435C40.4396 43.1288 40.4423 43.3441 40.4478 43.5894C40.4697 44.2272 40.6341 44.6878 40.9408 44.9713C41.2476 45.2547 41.6339 45.3964 42.0995 45.3964Z"
    fill="black"/>
  <path
    d="M47.4698 45.7235C47.4151 45.7235 47.3712 45.7071 47.3384 45.6744C47.3055 45.6417 47.2891 45.5981 47.2891 45.5436V40.1881C47.2891 40.1281 47.3055 40.0818 47.3384 40.0491C47.3712 40.0164 47.4151 40 47.4698 40H49.3845C49.9597 40 50.4172 40.1363 50.7568 40.4088C51.102 40.6814 51.2745 41.0956 51.2745 41.6516C51.2745 42.0877 51.165 42.4366 50.9458 42.6982C50.7267 42.9599 50.4227 43.137 50.0337 43.2297L51.3567 45.47C51.3732 45.5027 51.3814 45.5327 51.3814 45.56C51.3814 45.6036 51.3649 45.6417 51.3321 45.6744C51.2992 45.7071 51.2608 45.7235 51.217 45.7235H51.1184C51.0308 45.7235 50.965 45.7017 50.9212 45.6581C50.8774 45.609 50.839 45.5572 50.8061 45.5027L49.4996 43.3033H47.8068V45.5436C47.8068 45.5981 47.7903 45.6417 47.7575 45.6744C47.7246 45.7071 47.678 45.7235 47.6178 45.7235H47.4698ZM47.8068 42.8127H49.3434C49.8201 42.8127 50.1734 42.7173 50.4035 42.5265C50.6391 42.3303 50.7568 42.0386 50.7568 41.6516C50.7568 41.2646 50.6391 40.9757 50.4035 40.7849C50.1734 40.5887 49.8201 40.4906 49.3434 40.4906H47.8068V42.8127Z"
    fill="black"/>
  <path d="M54.5394 45.7235C54.4955 45.7235 54.4572 45.7071 54.4243 45.6744C54.3914 45.6417 54.375 45.6036 54.375 45.56C54.375 45.5327 54.3805 45.5027 54.3914 45.47L56.4705 40.1635C56.4924 40.109 56.5198 40.0681 56.5526 40.0409C56.591 40.0136 56.643 40 56.7088 40H56.9882C57.0539 40 57.1032 40.0136 57.1361 40.0409C57.1744 40.0681 57.2046 40.109 57.2265 40.1635L59.3055 45.47C59.3165 45.5027 59.3219 45.5327 59.3219 45.56C59.3219 45.6036 59.3055 45.6417 59.2726 45.6744C59.2398 45.7071 59.2014 45.7235 59.1576 45.7235H58.9932C58.9384 45.7235 58.8974 45.7099 58.87 45.6826C58.8426 45.6499 58.8234 45.6226 58.8124 45.6008L58.303 44.2926H55.394L54.8845 45.6008C54.879 45.6226 54.8598 45.6499 54.827 45.6826C54.7996 45.7099 54.7585 45.7235 54.7037 45.7235H54.5394ZM55.5912 43.802H58.1057L56.8485 40.5805L55.5912 43.802Z" fill="black"/>
  <path
    d="M64.4318 45.887C63.9881 45.887 63.6101 45.8161 63.2978 45.6744C62.991 45.5327 62.7554 45.3501 62.5911 45.1266C62.4267 44.9031 62.3391 44.666 62.3281 44.4153C62.3281 44.3716 62.3446 44.3335 62.3774 44.3008C62.4103 44.2681 62.4514 44.2517 62.5007 44.2517H62.665C62.7198 44.2517 62.7609 44.2681 62.7883 44.3008C62.8212 44.3335 62.8404 44.3716 62.8458 44.4153C62.8677 44.5679 62.9362 44.7205 63.0513 44.8731C63.1663 45.0203 63.3361 45.1457 63.5608 45.2492C63.7854 45.3474 64.0757 45.3964 64.4318 45.3964C64.9687 45.3964 65.3604 45.301 65.6069 45.1103C65.8534 44.914 65.9767 44.6524 65.9767 44.3253C65.9767 44.1073 65.911 43.9328 65.7795 43.802C65.6535 43.6658 65.459 43.5458 65.196 43.4423C64.9331 43.3332 64.5962 43.2133 64.1853 43.0825C63.7963 42.9571 63.4758 42.829 63.2238 42.6982C62.9718 42.5619 62.7856 42.3984 62.665 42.2076C62.55 42.0168 62.4925 41.7716 62.4925 41.4718C62.4925 41.1938 62.5664 40.9457 62.7143 40.7277C62.8623 40.5042 63.0759 40.3271 63.3553 40.1962C63.6402 40.0654 63.9853 40 64.3907 40C64.7139 40 64.9961 40.0436 65.2371 40.1308C65.4782 40.218 65.6781 40.3352 65.837 40.4824C65.9959 40.6241 66.1164 40.7795 66.1986 40.9485C66.2807 41.112 66.3246 41.2728 66.33 41.4309C66.33 41.469 66.3163 41.5072 66.289 41.5453C66.2616 41.578 66.2177 41.5944 66.1575 41.5944H65.9931C65.9657 41.5944 65.9301 41.5835 65.8863 41.5617C65.848 41.5399 65.8233 41.4963 65.8123 41.4309C65.7795 41.1583 65.6343 40.9348 65.3768 40.7604C65.1248 40.5805 64.7961 40.4906 64.3907 40.4906C63.9853 40.4906 63.6539 40.5696 63.3964 40.7277C63.1389 40.8858 63.0102 41.1338 63.0102 41.4718C63.0102 41.6898 63.0677 41.8697 63.1827 42.0114C63.2978 42.1477 63.4786 42.2703 63.7251 42.3793C63.9716 42.4829 64.2894 42.5974 64.6783 42.7227C65.0892 42.8536 65.4289 42.9844 65.6973 43.1152C65.9657 43.246 66.1657 43.4068 66.2972 43.5976C66.4287 43.7829 66.4944 44.0255 66.4944 44.3253C66.4944 44.6578 66.4095 44.9413 66.2397 45.1757C66.0753 45.4046 65.8397 45.5818 65.533 45.7071C65.2262 45.827 64.8591 45.887 64.4318 45.887Z"
    fill="black"/>
  <path d="M69.6093 41.3736C69.5655 41.3736 69.5326 41.3573 69.5107 41.3246C69.4942 41.2919 69.4888 41.251 69.4942 41.2019L69.6504 40.2208C69.6613 40.1554 69.6805 40.1036 69.7079 40.0654C69.7408 40.0218 69.7901 40 69.8558 40H70.2256C70.2639 40 70.2941 40.0136 70.316 40.0409C70.3379 40.0681 70.3489 40.0981 70.3489 40.1308C70.3489 40.1799 70.3379 40.2289 70.316 40.278L69.9626 41.2019C69.9407 41.2564 69.9133 41.3 69.8805 41.3328C69.8531 41.36 69.8092 41.3736 69.749 41.3736H69.6093Z" fill="black"/>
  <path d="M76.5323 45.7235C76.4776 45.7235 76.4337 45.7071 76.4009 45.6744C76.368 45.6417 76.3516 45.5981 76.3516 45.5436V40.1881C76.3516 40.1281 76.368 40.0818 76.4009 40.0491C76.4337 40.0164 76.4776 40 76.5323 40H78.5292C78.9127 40 79.2441 40.0654 79.5235 40.1962C79.8084 40.3216 80.0275 40.5097 80.1809 40.7604C80.3398 41.0111 80.4192 41.3219 80.4192 41.6925C80.4192 42.0632 80.3398 42.3739 80.1809 42.6246C80.0275 42.8754 79.8084 43.0662 79.5235 43.197C79.2441 43.3223 78.9127 43.385 78.5292 43.385H76.8693V45.5436C76.8693 45.5981 76.8528 45.6417 76.82 45.6744C76.7871 45.7071 76.7405 45.7235 76.6803 45.7235H76.5323ZM76.8693 42.8944H78.4881C78.9647 42.8944 79.3181 42.7909 79.5482 42.5837C79.7837 42.3766 79.9015 42.0795 79.9015 41.6925C79.9015 41.3055 79.7837 41.0084 79.5482 40.8013C79.3181 40.5942 78.9647 40.4906 78.4881 40.4906H76.8693V42.8944Z" fill="black"/>
  <path d="M83.6027 45.7235C83.5479 45.7235 83.504 45.7071 83.4712 45.6744C83.4383 45.6417 83.4219 45.5981 83.4219 45.5436V40.1799C83.4219 40.1254 83.4383 40.0818 83.4712 40.0491C83.504 40.0164 83.5479 40 83.6027 40H83.7588C83.8136 40 83.8574 40.0164 83.8903 40.0491C83.9231 40.0818 83.9396 40.1254 83.9396 40.1799V45.2329H86.7746C86.8349 45.2329 86.8814 45.2492 86.9143 45.282C86.9472 45.3147 86.9636 45.361 86.9636 45.421V45.5436C86.9636 45.5981 86.9472 45.6417 86.9143 45.6744C86.8814 45.7071 86.8349 45.7235 86.7746 45.7235H83.6027Z" fill="black"/>
  <path d="M90.1253 45.7235C90.0815 45.7235 90.0431 45.7071 90.0102 45.6744C89.9774 45.6417 89.9609 45.6036 89.9609 45.56C89.9609 45.5327 89.9664 45.5027 89.9774 45.47L92.0564 40.1635C92.0783 40.109 92.1057 40.0681 92.1386 40.0409C92.1769 40.0136 92.229 40 92.2947 40H92.5741C92.6398 40 92.6891 40.0136 92.722 40.0409C92.7604 40.0681 92.7905 40.109 92.8124 40.1635L94.8914 45.47C94.9024 45.5027 94.9079 45.5327 94.9079 45.56C94.9079 45.6036 94.8914 45.6417 94.8586 45.6744C94.8257 45.7071 94.7873 45.7235 94.7435 45.7235H94.5792C94.5244 45.7235 94.4833 45.7099 94.4559 45.6826C94.4285 45.6499 94.4093 45.6226 94.3984 45.6008L93.8889 44.2926H90.9799L90.4704 45.6008C90.4649 45.6226 90.4458 45.6499 90.4129 45.6826C90.3855 45.7099 90.3444 45.7235 90.2896 45.7235H90.1253ZM91.1771 43.802H93.6917L92.4344 40.5805L91.1771 43.802Z" fill="black"/>
  <path d="M99.8949 45.7235C99.8401 45.7235 99.7963 45.7071 99.7634 45.6744C99.7305 45.6417 99.7141 45.5981 99.7141 45.5436V40.4906H98.087C98.0323 40.4906 97.9884 40.4742 97.9556 40.4415C97.9227 40.4088 97.9062 40.3652 97.9062 40.3107V40.1881C97.9062 40.1281 97.9227 40.0818 97.9556 40.0491C97.9884 40.0164 98.0323 40 98.087 40H101.851C101.911 40 101.957 40.0164 101.99 40.0491C102.023 40.0818 102.04 40.1281 102.04 40.1881V40.3107C102.04 40.3652 102.023 40.4088 101.99 40.4415C101.957 40.4742 101.911 40.4906 101.851 40.4906H100.232V45.5436C100.232 45.5981 100.215 45.6417 100.182 45.6744C100.15 45.7071 100.103 45.7235 100.043 45.7235H99.8949Z" fill="black"/>
  <path d="M105.22 45.7235C105.165 45.7235 105.121 45.7071 105.088 45.6744C105.055 45.6417 105.039 45.5981 105.039 45.5436V40.1881C105.039 40.1281 105.055 40.0818 105.088 40.0491C105.121 40.0164 105.165 40 105.22 40H108.392C108.452 40 108.499 40.0164 108.531 40.0491C108.564 40.0818 108.581 40.1281 108.581 40.1881V40.3107C108.581 40.3652 108.564 40.4088 108.531 40.4415C108.499 40.4742 108.452 40.4906 108.392 40.4906H105.557V42.69H108.227C108.288 42.69 108.334 42.7064 108.367 42.7391C108.4 42.7718 108.416 42.8181 108.416 42.8781V43.0007C108.416 43.0552 108.4 43.0989 108.367 43.1316C108.334 43.1643 108.288 43.1806 108.227 43.1806H105.557V45.5436C105.557 45.5981 105.54 45.6417 105.507 45.6744C105.475 45.7071 105.428 45.7235 105.368 45.7235H105.22Z" fill="black"/>
  <path
    d="M113.764 45.887C113.309 45.887 112.923 45.808 112.605 45.6499C112.287 45.4864 112.043 45.2383 111.874 44.9058C111.704 44.5679 111.611 44.1427 111.594 43.6303C111.589 43.385 111.586 43.1561 111.586 42.9435C111.586 42.7309 111.589 42.502 111.594 42.2567C111.611 41.7498 111.709 41.33 111.89 40.9975C112.071 40.6596 112.32 40.4088 112.638 40.2453C112.961 40.0818 113.336 40 113.764 40C114.191 40 114.563 40.0818 114.881 40.2453C115.204 40.4088 115.456 40.6596 115.637 40.9975C115.823 41.33 115.922 41.7498 115.933 42.2567C115.944 42.502 115.949 42.7309 115.949 42.9435C115.949 43.1561 115.944 43.385 115.933 43.6303C115.922 44.1427 115.829 44.5679 115.654 44.9058C115.484 45.2383 115.24 45.4864 114.922 45.6499C114.604 45.808 114.218 45.887 113.764 45.887ZM113.764 45.3964C114.235 45.3964 114.621 45.2547 114.922 44.9713C115.229 44.6878 115.393 44.2272 115.415 43.5894C115.426 43.3441 115.432 43.1288 115.432 42.9435C115.432 42.7582 115.426 42.5429 115.415 42.2976C115.404 41.8724 115.325 41.5263 115.177 41.2592C115.035 40.9921 114.84 40.7986 114.594 40.6786C114.352 40.5533 114.076 40.4906 113.764 40.4906C113.457 40.4906 113.18 40.5533 112.934 40.6786C112.693 40.7986 112.498 40.9921 112.35 41.2592C112.208 41.5263 112.128 41.8724 112.112 42.2976C112.106 42.5429 112.104 42.7582 112.104 42.9435C112.104 43.1288 112.106 43.3441 112.112 43.5894C112.134 44.2272 112.298 44.6878 112.605 44.9713C112.912 45.2547 113.298 45.3964 113.764 45.3964Z"
    fill="black"/>
  <path
    d="M119.126 45.7235C119.071 45.7235 119.027 45.7071 118.995 45.6744C118.962 45.6417 118.945 45.5981 118.945 45.5436V40.1881C118.945 40.1281 118.962 40.0818 118.995 40.0491C119.027 40.0164 119.071 40 119.126 40H121.041C121.616 40 122.073 40.1363 122.413 40.4088C122.758 40.6814 122.931 41.0956 122.931 41.6516C122.931 42.0877 122.821 42.4366 122.602 42.6982C122.383 42.9599 122.079 43.137 121.69 43.2297L123.013 45.47C123.029 45.5027 123.038 45.5327 123.038 45.56C123.038 45.6036 123.021 45.6417 122.988 45.6744C122.955 45.7071 122.917 45.7235 122.873 45.7235H122.775C122.687 45.7235 122.621 45.7017 122.577 45.6581C122.534 45.609 122.495 45.5572 122.462 45.5027L121.156 43.3033H119.463V45.5436C119.463 45.5981 119.447 45.6417 119.414 45.6744C119.381 45.7071 119.334 45.7235 119.274 45.7235H119.126ZM119.463 42.8127H121C121.476 42.8127 121.83 42.7173 122.06 42.5265C122.295 42.3303 122.413 42.0386 122.413 41.6516C122.413 41.2646 122.295 40.9757 122.06 40.7849C121.83 40.5887 121.476 40.4906 121 40.4906H119.463V42.8127Z"
    fill="black"/>
  <path
    d="M126.228 45.7235C126.173 45.7235 126.127 45.7071 126.088 45.6744C126.055 45.6417 126.039 45.5981 126.039 45.5436V40.1881C126.039 40.1281 126.055 40.0818 126.088 40.0491C126.127 40.0164 126.173 40 126.228 40H126.434C126.488 40 126.529 40.0136 126.557 40.0409C126.584 40.0681 126.601 40.0899 126.606 40.1063L128.471 43.7203L130.345 40.1063C130.356 40.0899 130.372 40.0681 130.394 40.0409C130.422 40.0136 130.463 40 130.518 40H130.715C130.775 40 130.822 40.0164 130.855 40.0491C130.887 40.0818 130.904 40.1281 130.904 40.1881V45.5436C130.904 45.5981 130.887 45.6417 130.855 45.6744C130.822 45.7071 130.775 45.7235 130.715 45.7235H130.567C130.512 45.7235 130.468 45.7071 130.435 45.6744C130.403 45.6417 130.386 45.5981 130.386 45.5436V41.112L128.817 44.1863C128.795 44.2408 128.762 44.2817 128.718 44.309C128.68 44.3362 128.628 44.3498 128.562 44.3498H128.381C128.315 44.3498 128.263 44.3362 128.225 44.309C128.187 44.2817 128.154 44.2408 128.126 44.1863L126.557 41.112V45.5436C126.557 45.5981 126.54 45.6417 126.507 45.6744C126.475 45.7071 126.431 45.7235 126.376 45.7235H126.228Z"
    fill="black"/>
</svg>
