<?xml version="1.0" standalone="no"?>
<!DOCTYPE svg PUBLIC "-//W3C//DTD SVG 20010904//EN"
 "http://www.w3.org/TR/2001/REC-SVG-20010904/DTD/svg10.dtd">
<svg version="1.0" xmlns="http://www.w3.org/2000/svg"
 width="550.000000pt" height="120.000000pt" viewBox="0 0 550.000000 120.000000"
 preserveAspectRatio="xMidYMid meet">

<g transform="translate(0.000000,120.000000) scale(0.100000,-0.100000)"
fill="#fff" stroke="none">
<path d="M536 948 c-14 -24 -113 -198 -220 -388 l-195 -345 84 -3 85 -3 162
97 c90 53 164 97 166 99 2 1 -14 13 -35 25 -26 15 -42 19 -53 13 -8 -5 -42
-24 -74 -43 l-60 -34 45 81 c154 279 225 403 230 403 3 0 62 -99 132 -220 69
-121 124 -220 121 -220 -2 0 -59 27 -125 60 l-120 61 -50 -29 -49 -28 244
-132 243 -133 82 3 81 3 -222 388 -222 387 -113 0 -112 0 -25 -42z"/>
<path d="M1330 620 l0 -300 124 0 c121 0 126 1 187 33 256 132 199 505 -85
556 -33 6 -97 11 -143 11 l-83 0 0 -300z m237 185 c104 -31 165 -145 132 -246
-30 -87 -94 -134 -203 -145 l-66 -7 0 207 0 206 43 0 c24 0 66 -7 94 -15z"/>
<path d="M2463 908 c-7 -10 -161 -411 -221 -575 -3 -10 11 -13 51 -13 l55 0
27 80 27 80 111 0 112 0 29 -80 28 -80 55 0 c48 0 54 2 48 18 -3 9 -52 136
-107 282 -55 146 -104 273 -109 283 -12 20 -91 24 -106 5z m86 -216 c17 -46
31 -90 31 -98 0 -11 -15 -14 -65 -14 -50 0 -65 3 -65 14 0 18 61 188 66 184 1
-2 17 -41 33 -86z"/>
<path d="M2840 620 l0 -300 50 0 50 0 2 212 3 211 121 -209 121 -209 51 -3 52
-3 0 301 0 301 -47 -3 -48 -3 -5 -203 -5 -203 -118 206 -119 205 -54 0 -54 0
0 -300z"/>
<path d="M3340 865 l0 -55 95 0 95 0 0 -245 0 -245 50 0 50 0 0 245 0 245 100
0 100 0 0 55 0 55 -245 0 -245 0 0 -55z"/>
<path d="M3983 908 c-7 -10 -161 -411 -221 -575 -3 -10 11 -13 51 -13 l55 0
27 80 27 80 111 0 112 0 29 -80 28 -80 55 0 c48 0 54 2 48 18 -3 9 -52 136
-107 282 -55 146 -104 273 -109 283 -12 20 -91 24 -106 5z m86 -216 c17 -46
31 -90 31 -98 0 -11 -15 -14 -65 -14 -50 0 -65 3 -65 14 0 18 61 188 66 184 1
-2 17 -41 33 -86z"/>
<path d="M4555 915 c-5 -2 -26 -6 -46 -9 -81 -14 -175 -107 -200 -199 -38
-142 25 -295 148 -357 71 -36 170 -35 237 3 27 15 52 27 56 27 4 0 13 -13 20
-30 12 -28 16 -30 66 -30 30 0 54 2 54 3 0 2 -28 69 -63 148 l-64 144 -51 3
c-31 2 -52 -1 -52 -7 0 -6 11 -36 25 -67 29 -65 26 -73 -39 -106 -117 -60
-250 38 -249 184 2 173 185 256 300 137 34 -35 43 -39 86 -39 33 0 47 4 47 13
0 17 -55 95 -84 119 -46 39 -155 75 -191 63z"/>
<path d="M4940 620 l0 -300 201 0 200 0 -3 43 -3 42 -147 3 -148 3 0 79 0 80
130 0 130 0 0 50 0 50 -130 0 -130 0 0 80 0 80 151 0 150 0 -3 43 -3 42 -197
3 -198 2 0 -300z"/>
<path d="M1802 898 c3 -7 47 -140 99 -296 l94 -283 54 3 53 3 94 273 c51 150
96 282 99 293 6 17 1 19 -47 19 l-53 0 -70 -225 c-38 -124 -72 -225 -75 -225
-3 0 -37 100 -75 223 l-70 222 -54 3 c-41 2 -52 0 -49 -10z"/>
<path d="M1081 783 l-64 -4 28 -30 c16 -16 25 -29 19 -29 -5 0 -17 -7 -27 -14
-17 -13 -17 -16 -2 -45 18 -36 23 -37 63 -14 29 17 30 17 54 -12 l25 -29 31
92 31 92 -47 -2 c-26 -1 -76 -3 -111 -5z"/>
</g>
</svg>
